<?xml version="1.0" standalone="no"?><!DOCTYPE svg PUBLIC "-//W3C//DTD SVG 1.1//EN" "http://www.w3.org/Graphics/SVG/1.1/DTD/svg11.dtd"><svg t="1523610099527" class="icon" style="" viewBox="0 0 1025 1024" version="1.1" xmlns="http://www.w3.org/2000/svg" p-id="1155" xmlns:xlink="http://www.w3.org/1999/xlink" width="200.1953125" height="200"><defs><style type="text/css"></style></defs><path d="M1005.184 739.328l-29.472 9.28c0.864 6.272 1.856 12.48 1.856 19.072 0 6.496-1.088 12.864-2.016 19.04l29.664 9.28a26.56 26.56 0 0 1 18.048 33.792 28.224 28.224 0 0 1-35.232 17.248l-30.144-9.312c-6.272 11.296-14.08 21.824-23.072 31.072l18.304 24.256a26.048 26.048 0 0 1 5.024 20.032 26.144 26.144 0 0 1-11.264 17.376 28.64 28.64 0 0 1-39.008-5.92l-18.464-24.352a153.6 153.6 0 0 1-37.856 12.256v29.568c0 14.784-12.512 26.848-27.968 26.848-15.424 0-28-11.968-28-26.848v-29.568a155.584 155.584 0 0 1-37.824-12.256l-18.336 24.352a28.896 28.896 0 0 1-39.168 5.92 25.92 25.92 0 0 1-6.144-37.408l18.496-24.48a146.88 146.88 0 0 1-23.936-30.624l-29.344 9.152c-14.784 4.672-30.528-3.136-35.264-17.248a26.624 26.624 0 0 1 17.92-33.76l29.472-9.12c-0.8-6.368-1.792-12.672-1.792-19.2 0-6.56 1.056-12.832 2.016-19.136l-29.696-9.248c-14.752-4.608-22.688-19.712-17.92-33.792 4.704-14.08 20.48-21.792 35.264-17.28l29.984 9.408a148.16 148.16 0 0 1 23.168-31.104l-18.304-24.192a26.176 26.176 0 0 1 6.144-37.504 28.8 28.8 0 0 1 39.168 5.984l18.336 24.352a152.64 152.64 0 0 1 37.888-12.32v-29.504c0-14.848 12.512-26.88 28-26.88 15.392 0 27.936 11.968 27.936 26.88v29.472c13.408 2.336 25.952 6.816 37.856 12.32l18.432-24.352a28.864 28.864 0 0 1 39.072-5.984 26.112 26.112 0 0 1 6.208 37.504l-18.592 24.384c9.152 9.344 17.536 19.392 23.936 30.624l29.472-9.088a28.256 28.256 0 0 1 35.232 17.28c4.768 14.016-3.328 29.152-18.08 33.728z m-181.504-65.472c-54.048 0-97.952 42.048-97.952 93.888s43.872 93.856 97.952 93.856c54.016 0 97.888-42.016 97.888-93.856 0-51.84-43.776-93.888-97.888-93.888z" p-id="1156"></path><path d="M370.816 656.48c0 26.24 21.184 47.456 47.36 47.456h113.696a295.744 295.744 0 0 1 38.912-94.848h-152.608a47.36 47.36 0 0 0-47.36 47.392zM890.464 193.536s-396 0.416-374.88 0c-22.56 0.416-34.048-11.936-34.048-11.936s-15.744-27.232-44.16-69.984c-29.632-44.928-64.128-37.664-64.128-37.664H81.664c-80.864 0-81.664 77.824-81.664 77.824v703.136c0 86.688 65.536 76.064 65.536 76.064h508.128a295.264 295.264 0 0 1-29.76-59.264H107.904a48.32 48.32 0 0 1-48.384-48.48V321.536c0-26.784 21.568-48.352 48.384-48.352h741.056c26.816 0 48.384 21.568 48.384 48.352v156.96a294.4 294.4 0 0 1 59.488 22.08V259.456c-0.032-72.832-66.368-65.92-66.368-65.92z m-151.392 228.032H418.208c-26.176 0-47.36 21.184-47.36 47.392s21.184 47.392 47.36 47.392h244.384a296.768 296.768 0 0 1 123.584-44.8c0.032-0.864 0.256-1.696 0.256-2.592 0-26.208-21.152-47.392-47.36-47.392zM242.208 605.92a50.56 50.56 0 1 0 0 101.216 50.624 50.624 0 0 0 0-101.216z m0-187.552a50.624 50.624 0 1 0-0.064 101.248 50.624 50.624 0 0 0 0.064-101.248z" p-id="1157"></path></svg>