<?xml version="1.0" standalone="no"?><!DOCTYPE svg PUBLIC "-//W3C//DTD SVG 1.1//EN" "http://www.w3.org/Graphics/SVG/1.1/DTD/svg11.dtd"><svg t="1523609372732" class="icon" style="" viewBox="0 0 1024 1024" version="1.1" xmlns="http://www.w3.org/2000/svg" p-id="622" xmlns:xlink="http://www.w3.org/1999/xlink" width="200" height="200"><defs><style type="text/css"></style></defs><path d="M927.491697 383.145126 927.098917 934.122744C925.273646 976.242599 895.745848 1010.968953 856.213718 1020.303249L167.046931 1020.303249C126.220939 1010.668592 95.745848 974.047653 95.745848 930.079422L95.745848 880.704693 95.353069 880.704693 95.676534 143.295307 95.745848 143.295307 95.745848 93.943682C95.745848 49.952347 126.244043 13.308303 167.070036 3.696751L373.002166 3.696751C398.532852 3.696751 419.211552 24.375451 419.211552 49.906137 419.211552 75.436823 398.532852 96.115523 373.002166 96.115523L253.019495 96.115523C201.911913 100.320578 188.141516 120.028881 188.141516 187.956679L188.742238 96.115523 188.118412 96.115523 187.748736 927.884477 188.742238 927.884477 188.141516 836.043321C188.141516 903.948014 201.911913 923.679422 252.927076 927.884477L770.333574 927.884477C818.368231 923.910469 833.178339 905.496029 834.749458 846.740794L835.049819 419.488809 653.14657 419.234657 653.14657 419.096029 604.049097 419.096029C553.01083 419.096029 511.630325 377.507581 511.630325 326.192058L511.630325 279.751625 511.306859 279.751625 511.60722 56.46787C508.626715 41.727076 512.78556 25.807942 524.176173 14.348014 524.961733 13.562455 526.001444 13.308303 526.810108 12.592058 530.391336 9.311191 534.388448 6.584838 538.847653 4.551625 539.12491 4.436101 539.379061 4.228159 539.679422 4.112635 545.247653 1.709747 551.370397 0.369675 557.816606 0.369675 573.943682 0.369675 588.083755 8.66426 596.355235 21.233213L904.964621 332.291697C905.79639 332.776895 906.489531 333.493141 907.27509 334.024549 908.661372 334.925632 909.93213 335.965343 911.202888 337.005054 911.849819 337.559567 912.519856 338.021661 913.143682 338.599278 922.570397 347.101805 928.646931 359.347292 928.646931 373.094585 928.646931 376.537184 928.207942 379.887365 927.491697 383.145126ZM834.518412 927.884477 834.680144 927.884477 834.703249 898.934296 834.518412 927.884477ZM603.887365 160.39278 603.794946 235.598556C604.141516 308.054874 619.991336 326.238267 697.576895 326.238267L604.326354 325.61444 603.771841 242.80722 603.679422 326.261372 768.693141 326.492419 603.887365 160.39278ZM742.677256 696.837545C742.677256 735.122022 711.647653 766.151625 673.363177 766.151625 635.0787 766.151625 604.049097 735.122022 604.049097 696.837545 604.049097 658.553069 635.0787 627.523466 673.363177 627.523466 711.647653 627.523466 742.677256 658.553069 742.677256 696.837545ZM580.944404 535.104693C580.944404 509.574007 601.623105 488.895307 627.153791 488.895307 652.684477 488.895307 673.363177 509.574007 673.363177 535.104693 673.363177 560.612274 652.684477 581.314079 627.153791 581.314079 601.623105 581.314079 580.944404 560.612274 580.944404 535.104693ZM580.944404 812.361011C580.944404 863.399278 539.563899 904.779783 488.525632 904.779783 437.487365 904.779783 396.106859 863.399278 396.106859 812.361011 396.106859 761.322744 437.487365 719.942238 488.525632 719.942238 539.563899 719.942238 580.944404 761.322744 580.944404 812.361011ZM349.897473 673.732852C286.105415 673.732852 234.374007 622.001444 234.374007 558.209386 234.374007 494.417329 286.105415 442.685921 349.897473 442.685921 413.689531 442.685921 465.420939 494.417329 465.420939 558.209386 465.420939 622.001444 413.689531 673.732852 349.897473 673.732852Z" p-id="623"></path></svg>